<?xml version="1.0" standalone="no"?>
<!DOCTYPE svg PUBLIC "-//W3C//DTD SVG 20010904//EN"
 "http://www.w3.org/TR/2001/REC-SVG-20010904/DTD/svg10.dtd">
<svg version="1.0" xmlns="http://www.w3.org/2000/svg"
 width="490.000000pt" height="490.000000pt" viewBox="0 0 490.000000 490.000000"
 preserveAspectRatio="xMidYMid meet">
<metadata>
Created by potrace 1.11, written by Peter Selinger 2001-2013
</metadata>
<g transform="translate(0.000000,490.000000) scale(0.100000,-0.100000)"
fill="#000000" stroke="none">
<path d="M3952 4886 c-23 -8 -57 -25 -75 -39 -18 -13 -197 -189 -398 -391
l-366 -366 -1234 -2 -1234 -3 -59 -29 c-72 -35 -122 -87 -152 -157 -23 -53
-23 -58 -24 -457 l0 -404 -147 -146 c-238 -239 -263 -267 -263 -302 0 -17 5
-41 11 -53 7 -12 98 -108 203 -214 l191 -192 5 -548 5 -548 27 -52 c30 -57 91
-112 159 -142 42 -20 64 -21 566 -21 287 0 532 -4 545 -9 13 -5 199 -184 413
-398 215 -215 400 -395 412 -402 12 -6 36 -11 54 -11 30 0 63 29 341 307 169
169 315 322 324 341 20 42 6 87 -38 131 l-31 30 24 6 c13 3 213 4 444 3 l420
-3 5 -270 c4 -237 7 -274 23 -298 9 -15 28 -29 41 -33 13 -3 122 -4 242 -2
212 3 221 4 274 29 85 40 154 108 197 197 l38 76 3 1615 c2 1602 2 1616 -18
1676 -23 70 -94 165 -155 207 -85 59 -136 71 -311 76 l-161 4 96 98 c112 114
141 170 141 273 0 95 -36 160 -154 280 -118 118 -171 149 -271 153 -42 3 -87
-2 -113 -10z m-187 -716 c77 -77 137 -140 135 -140 -3 0 -68 63 -145 140 -77
77 -137 140 -135 140 3 0 68 -63 145 -140z m-875 -296 c0 -4 -141 -148 -313
-320 l-314 -314 -72 -218 c-40 -119 -90 -271 -112 -337 -21 -66 -39 -131 -39
-143 0 -14 15 -39 34 -58 l34 -34 786 0 786 0 0 105 0 105 -437 0 c-337 1
-433 3 -418 12 11 7 289 281 618 610 l598 599 259 -3 258 -3 43 -30 c23 -16
52 -43 63 -58 l21 -28 3 -1391 c2 -1325 1 -1390 -15 -1383 -80 33 -127 34
-913 35 l-785 0 -1114 1114 c-613 614 -1127 1120 -1143 1127 -23 9 -37 10 -62
1 -18 -7 -35 -12 -39 -12 -4 0 -7 119 -7 265 0 285 5 316 51 349 21 15 123 16
1126 16 607 0 1103 -3 1103 -6z m-2065 -994 l140 -140 -110 -110 -110 -110 65
-65 c35 -36 69 -65 75 -65 6 0 55 45 110 100 55 55 104 100 110 100 13 0 275
-263 275 -276 0 -5 -47 -56 -105 -114 l-105 -105 60 -60 60 -60 110 110 110
110 142 -143 143 -142 -110 -110 -110 -110 60 -60 c33 -33 64 -60 70 -60 5 0
56 48 113 106 l104 107 120 -119 c66 -66 129 -132 140 -147 l21 -29 -107 -107
-106 -106 60 -60 60 -59 110 109 111 109 125 -125 c69 -68 130 -135 135 -148
9 -23 1 -34 -93 -128 l-103 -103 63 -62 62 -63 110 110 110 110 143 -143 142
-143 -225 -220 -224 -220 -1168 1168 c-642 642 -1168 1172 -1168 1178 -1 9
429 434 440 435 3 0 68 -63 145 -140z m1671 25 c47 -47 82 -90 79 -95 -3 -5
-25 -15 -48 -21 -23 -7 -79 -25 -125 -40 -46 -16 -85 -29 -87 -29 -4 0 20 83
47 165 31 90 37 105 44 105 3 0 44 -38 90 -85z m-1414 -1450 l429 -430 -406
-3 c-353 -2 -409 0 -436 14 -57 29 -59 43 -59 485 l0 402 21 -19 c12 -10 215
-212 451 -449z m3504 -664 c50 -26 69 -45 89 -94 28 -68 14 -168 -33 -221 -9
-10 -39 -29 -67 -42 -44 -21 -65 -24 -167 -24 l-118 0 0 198 c0 109 3 202 8
207 4 4 61 5 127 2 97 -4 128 -9 161 -26z"/>
<path d="M3880 2555 l0 -105 105 0 106 0 -3 103 -3 102 -102 3 -103 3 0 -106z"/>
<path d="M4290 2555 l0 -105 100 0 100 0 0 105 0 105 -100 0 -100 0 0 -105z"/>
</g>
</svg>
