<?xml version="1.0" standalone="no"?>
<!DOCTYPE svg PUBLIC "-//W3C//DTD SVG 20010904//EN"
 "http://www.w3.org/TR/2001/REC-SVG-20010904/DTD/svg10.dtd">
<svg version="1.0" xmlns="http://www.w3.org/2000/svg"
 width="512.000000pt" height="512.000000pt" viewBox="0 0 512.000000 512.000000"
 preserveAspectRatio="xMidYMid meet">
<metadata>
Created by potrace 1.11, written by Peter Selinger 2001-2013
</metadata>
<g transform="translate(0.000000,512.000000) scale(0.100000,-0.100000)"
fill="#000000" stroke="none">
<path d="M4063 4991 c-28 -9 -66 -29 -85 -43 -18 -14 -195 -188 -394 -387
l-361 -361 -1229 -2 c-971 -3 -1237 -6 -1267 -16 -58 -20 -138 -91 -172 -152
l-30 -55 -3 -415 -3 -415 -204 -206 c-193 -193 -205 -207 -205 -242 0 -43 23
-70 267 -315 l143 -143 0 -529 c0 -513 1 -531 21 -585 24 -65 73 -120 144
-161 l50 -29 547 -3 548 -3 406 -404 c227 -227 417 -408 430 -411 13 -3 35 -3
49 0 24 6 601 572 637 625 33 49 18 122 -34 159 -10 7 -18 17 -18 23 0 5 173
9 445 9 l445 0 1 -252 c1 -267 4 -288 32 -328 l17 -25 238 0 237 0 60 30 c81
41 154 115 196 200 l34 70 0 1630 0 1630 -28 59 c-59 128 -165 214 -296 242
-36 7 -123 14 -193 14 l-127 0 90 93 c122 124 144 167 144 277 0 116 -22 156
-163 292 -88 85 -121 110 -166 127 -69 25 -134 26 -203 2z m234 -264 c156
-156 157 -146 -22 -326 l-135 -136 -152 153 -153 152 136 135 c180 179 170
178 326 22z m-417 -432 l155 -155 -568 -568 -567 -567 -157 158 -157 158 564
564 c311 311 567 565 570 565 3 0 75 -70 160 -155z m-880 -311 c0 -4 -139
-146 -308 -315 -170 -170 -313 -319 -319 -332 -6 -12 -41 -114 -78 -227 -37
-113 -85 -258 -107 -322 -44 -129 -44 -159 -2 -199 l26 -24 789 -3 790 -2 -3
102 -3 103 -440 5 c-242 3 -433 6 -424 8 10 1 289 274 622 607 l604 605 252 0
c228 0 255 -2 289 -19 45 -23 87 -66 101 -104 8 -20 11 -456 11 -1404 0 -1306
-1 -1375 -17 -1368 -77 32 -141 34 -918 35 l-780 0 -1115 1115 c-779 779
-1124 1118 -1146 1125 -25 9 -41 8 -69 -4 l-36 -15 3 289 3 289 29 30 30 31
1108 0 c609 0 1108 -3 1108 -6z m-2055 -994 l140 -140 -110 -110 -110 -110 68
-67 67 -68 107 107 108 107 46 -42 c26 -23 91 -88 145 -145 l98 -103 -107
-107 -107 -107 58 -58 57 -57 105 105 c58 58 109 105 115 105 6 0 73 -63 150
-140 l140 -140 -110 -110 -110 -110 63 -62 62 -63 105 108 106 108 82 -76 c45
-42 111 -108 146 -147 l64 -70 -106 -106 -107 -107 57 -58 58 -57 107 107 108
108 121 -120 c66 -66 130 -133 141 -148 l21 -29 -104 -104 -104 -104 60 -60
60 -60 110 110 110 110 145 -145 145 -145 -223 -223 -222 -222 -1175 1175
-1175 1175 217 217 c120 120 222 218 228 218 6 0 73 -63 150 -140z m1661 25
c46 -47 84 -89 84 -95 0 -5 -19 -14 -42 -21 -24 -6 -83 -24 -132 -41 -48 -16
-90 -27 -93 -25 -2 3 3 22 10 43 8 22 27 81 43 132 15 50 32 92 37 92 5 0 47
-38 93 -85z m-1411 -1450 l430 -430 -413 -3 c-370 -2 -415 -1 -438 14 -54 36
-54 40 -54 480 l0 407 22 -19 c13 -10 216 -212 453 -449z m3502 -663 c23 -12
54 -38 70 -59 25 -33 28 -44 28 -119 0 -94 -12 -118 -84 -169 -42 -29 -46 -30
-177 -33 l-134 -4 0 207 0 207 128 -4 c107 -3 134 -7 169 -26z"/>
<path d="M3997 2763 c-4 -3 -7 -51 -7 -105 l0 -98 100 0 100 0 0 105 0 105
-93 0 c-52 0 -97 -3 -100 -7z"/>
<path d="M4400 2665 l0 -105 100 0 100 0 0 105 0 105 -100 0 -100 0 0 -105z"/>
</g>
</svg>
